solid tunnel
   facet normal -1.000000e+000 0.000000e+000 0.000000e+000
      outer loop
         vertex 1.750000e+002 1.750000e+002 2.350000e+001
         vertex 1.750000e+002 1.750000e+002 0.000000e+000
         vertex 1.750000e+002 2.500000e+001 2.350000e+001
      endloop
   endfacet
   facet normal -1.000000e+000 0.000000e+000 0.000000e+000
      outer loop
         vertex 1.750000e+002 2.500000e+001 2.350000e+001
         vertex 1.750000e+002 1.750000e+002 0.000000e+000
         vertex 1.750000e+002 2.500000e+001 0.000000e+000
      endloop
   endfacet
   facet normal 0.000000e+000 -1.000000e+000 0.000000e+000
      outer loop
         vertex 2.500000e+001 1.750000e+002 2.350000e+001
         vertex 2.500000e+001 1.750000e+002 0.000000e+000
         vertex 1.750000e+002 1.750000e+002 2.350000e+001
      endloop
   endfacet
   facet normal 0.000000e+000 -1.000000e+000 0.000000e+000
      outer loop
         vertex 1.750000e+002 1.750000e+002 2.350000e+001
         vertex 2.500000e+001 1.750000e+002 0.000000e+000
         vertex 1.750000e+002 1.750000e+002 0.000000e+000
      endloop
   endfacet
   facet normal 1.000000e+000 0.000000e+000 0.000000e+000
      outer loop
         vertex 2.500000e+001 2.500000e+001 2.350000e+001
         vertex 2.500000e+001 2.500000e+001 0.000000e+000
         vertex 2.500000e+001 1.750000e+002 2.350000e+001
      endloop
   endfacet
   facet normal 1.000000e+000 0.000000e+000 0.000000e+000
      outer loop
         vertex 2.500000e+001 1.750000e+002 2.350000e+001
         vertex 2.500000e+001 2.500000e+001 0.000000e+000
         vertex 2.500000e+001 1.750000e+002 0.000000e+000
      endloop
   endfacet
   facet normal 0.000000e+000 1.000000e+000 0.000000e+000
      outer loop
         vertex 1.750000e+002 2.500000e+001 2.350000e+001
         vertex 1.750000e+002 2.500000e+001 0.000000e+000
         vertex 2.500000e+001 2.500000e+001 2.350000e+001
      endloop
   endfacet
   facet normal 0.000000e+000 1.000000e+000 0.000000e+000
      outer loop
         vertex 2.500000e+001 2.500000e+001 2.350000e+001
         vertex 1.750000e+002 2.500000e+001 0.000000e+000
         vertex 2.500000e+001 2.500000e+001 0.000000e+000
      endloop
   endfacet
   facet normal 0.000000e+000 0.000000e+000 1.000000e+000
      outer loop
         vertex 1.750000e+002 1.750000e+002 1.000000e+002
         vertex 2.000000e+002 2.000000e+002 1.000000e+002
         vertex 2.500000e+001 1.750000e+002 1.000000e+002
      endloop
   endfacet
   facet normal 0.000000e+000 0.000000e+000 1.000000e+000
      outer loop
         vertex 2.500000e+001 1.750000e+002 1.000000e+002
         vertex 2.000000e+002 2.000000e+002 1.000000e+002
         vertex 0.000000e+000 2.000000e+002 1.000000e+002
      endloop
   endfacet
   facet normal 0.000000e+000 0.000000e+000 1.000000e+000
      outer loop
         vertex 2.500000e+001 1.750000e+002 1.000000e+002
         vertex 0.000000e+000 2.000000e+002 1.000000e+002
         vertex 2.500000e+001 2.500000e+001 1.000000e+002
      endloop
   endfacet
   facet normal 0.000000e+000 0.000000e+000 1.000000e+000
      outer loop
         vertex 2.500000e+001 2.500000e+001 1.000000e+002
         vertex 0.000000e+000 2.000000e+002 1.000000e+002
         vertex 0.000000e+000 0.000000e+000 1.000000e+002
      endloop
   endfacet
   facet normal 0.000000e+000 0.000000e+000 1.000000e+000
      outer loop
         vertex 2.500000e+001 2.500000e+001 1.000000e+002
         vertex 0.000000e+000 0.000000e+000 1.000000e+002
         vertex 1.750000e+002 2.500000e+001 1.000000e+002
      endloop
   endfacet
   facet normal 0.000000e+000 0.000000e+000 1.000000e+000
      outer loop
         vertex 1.750000e+002 2.500000e+001 1.000000e+002
         vertex 0.000000e+000 0.000000e+000 1.000000e+002
         vertex 2.000000e+002 0.000000e+000 1.000000e+002
      endloop
   endfacet
   facet normal 0.000000e+000 0.000000e+000 1.000000e+000
      outer loop
         vertex 1.750000e+002 2.500000e+001 1.000000e+002
         vertex 2.000000e+002 0.000000e+000 1.000000e+002
         vertex 1.750000e+002 1.750000e+002 1.000000e+002
      endloop
   endfacet
   facet normal 0.000000e+000 0.000000e+000 1.000000e+000
      outer loop
         vertex 1.750000e+002 1.750000e+002 1.000000e+002
         vertex 2.000000e+002 0.000000e+000 1.000000e+002
         vertex 2.000000e+002 2.000000e+002 1.000000e+002
      endloop
   endfacet
   facet normal 0.000000e+000 0.000000e+000 -1.000000e+000
      outer loop
         vertex 1.750000e+002 1.750000e+002 0.000000e+000
         vertex 2.000000e+002 2.000000e+002 0.000000e+000
         vertex 1.750000e+002 2.500000e+001 0.000000e+000
      endloop
   endfacet
   facet normal 0.000000e+000 0.000000e+000 -1.000000e+000
      outer loop
         vertex 1.750000e+002 2.500000e+001 0.000000e+000
         vertex 2.000000e+002 2.000000e+002 0.000000e+000
         vertex 2.000000e+002 0.000000e+000 0.000000e+000
      endloop
   endfacet
   facet normal 0.000000e+000 0.000000e+000 -1.000000e+000
      outer loop
         vertex 1.750000e+002 2.500000e+001 0.000000e+000
         vertex 2.000000e+002 0.000000e+000 0.000000e+000
         vertex 2.500000e+001 2.500000e+001 0.000000e+000
      endloop
   endfacet
   facet normal 0.000000e+000 0.000000e+000 -1.000000e+000
      outer loop
         vertex 2.500000e+001 2.500000e+001 0.000000e+000
         vertex 2.000000e+002 0.000000e+000 0.000000e+000
         vertex 0.000000e+000 0.000000e+000 0.000000e+000
      endloop
   endfacet
   facet normal 0.000000e+000 0.000000e+000 -1.000000e+000
      outer loop
         vertex 2.500000e+001 2.500000e+001 0.000000e+000
         vertex 0.000000e+000 0.000000e+000 0.000000e+000
         vertex 2.500000e+001 1.750000e+002 0.000000e+000
      endloop
   endfacet
   facet normal 0.000000e+000 0.000000e+000 -1.000000e+000
      outer loop
         vertex 2.500000e+001 1.750000e+002 0.000000e+000
         vertex 0.000000e+000 0.000000e+000 0.000000e+000
         vertex 0.000000e+000 2.000000e+002 0.000000e+000
      endloop
   endfacet
   facet normal 0.000000e+000 0.000000e+000 -1.000000e+000
      outer loop
         vertex 2.500000e+001 1.750000e+002 0.000000e+000
         vertex 0.000000e+000 2.000000e+002 0.000000e+000
         vertex 1.750000e+002 1.750000e+002 0.000000e+000
      endloop
   endfacet
   facet normal 0.000000e+000 0.000000e+000 -1.000000e+000
      outer loop
         vertex 1.750000e+002 1.750000e+002 0.000000e+000
         vertex 0.000000e+000 2.000000e+002 0.000000e+000
         vertex 2.000000e+002 2.000000e+002 0.000000e+000
      endloop
   endfacet
   facet normal 1.000000e+000 0.000000e+000 0.000000e+000
      outer loop
         vertex 2.000000e+002 2.000000e+002 1.000000e+002
         vertex 2.000000e+002 0.000000e+000 1.000000e+002
         vertex 2.000000e+002 2.000000e+002 0.000000e+000
      endloop
   endfacet
   facet normal 1.000000e+000 0.000000e+000 0.000000e+000
      outer loop
         vertex 2.000000e+002 2.000000e+002 0.000000e+000
         vertex 2.000000e+002 0.000000e+000 1.000000e+002
         vertex 2.000000e+002 0.000000e+000 0.000000e+000
      endloop
   endfacet
   facet normal 0.000000e+000 1.000000e+000 0.000000e+000
      outer loop
         vertex 0.000000e+000 2.000000e+002 1.000000e+002
         vertex 2.000000e+002 2.000000e+002 1.000000e+002
         vertex 0.000000e+000 2.000000e+002 0.000000e+000
      endloop
   endfacet
   facet normal 0.000000e+000 1.000000e+000 0.000000e+000
      outer loop
         vertex 0.000000e+000 2.000000e+002 0.000000e+000
         vertex 2.000000e+002 2.000000e+002 1.000000e+002
         vertex 2.000000e+002 2.000000e+002 0.000000e+000
      endloop
   endfacet
   facet normal -1.000000e+000 0.000000e+000 0.000000e+000
      outer loop
         vertex 0.000000e+000 0.000000e+000 1.000000e+002
         vertex 0.000000e+000 2.000000e+002 1.000000e+002
         vertex 0.000000e+000 0.000000e+000 0.000000e+000
      endloop
   endfacet
   facet normal -1.000000e+000 0.000000e+000 0.000000e+000
      outer loop
         vertex 0.000000e+000 0.000000e+000 0.000000e+000
         vertex 0.000000e+000 2.000000e+002 1.000000e+002
         vertex 0.000000e+000 2.000000e+002 0.000000e+000
      endloop
   endfacet
   facet normal 0.000000e+000 -1.000000e+000 0.000000e+000
      outer loop
         vertex 2.000000e+002 0.000000e+000 1.000000e+002
         vertex 0.000000e+000 0.000000e+000 1.000000e+002
         vertex 2.000000e+002 0.000000e+000 0.000000e+000
      endloop
   endfacet
   facet normal 0.000000e+000 -1.000000e+000 0.000000e+000
      outer loop
         vertex 2.000000e+002 0.000000e+000 0.000000e+000
         vertex 0.000000e+000 0.000000e+000 1.000000e+002
         vertex 0.000000e+000 0.000000e+000 0.000000e+000
      endloop
   endfacet
   facet normal -1.000000e+000 0.000000e+000 0.000000e+000
      outer loop
         vertex 1.750000e+002 2.500000e+001 7.650000e+001
         vertex 1.750000e+002 2.500000e+001 1.000000e+002
         vertex 1.750000e+002 1.750000e+002 7.650000e+001
      endloop
   endfacet
   facet normal -1.000000e+000 0.000000e+000 0.000000e+000
      outer loop
         vertex 1.750000e+002 1.750000e+002 7.650000e+001
         vertex 1.750000e+002 2.500000e+001 1.000000e+002
         vertex 1.750000e+002 1.750000e+002 1.000000e+002
      endloop
   endfacet
   facet normal 0.000000e+000 -1.000000e+000 0.000000e+000
      outer loop
         vertex 1.750000e+002 1.750000e+002 7.650000e+001
         vertex 1.750000e+002 1.750000e+002 1.000000e+002
         vertex 2.500000e+001 1.750000e+002 7.650000e+001
      endloop
   endfacet
   facet normal 0.000000e+000 -1.000000e+000 0.000000e+000
      outer loop
         vertex 2.500000e+001 1.750000e+002 7.650000e+001
         vertex 1.750000e+002 1.750000e+002 1.000000e+002
         vertex 2.500000e+001 1.750000e+002 1.000000e+002
      endloop
   endfacet
   facet normal 1.000000e+000 0.000000e+000 0.000000e+000
      outer loop
         vertex 2.500000e+001 1.750000e+002 7.650000e+001
         vertex 2.500000e+001 1.750000e+002 1.000000e+002
         vertex 2.500000e+001 2.500000e+001 7.650000e+001
      endloop
   endfacet
   facet normal 1.000000e+000 0.000000e+000 0.000000e+000
      outer loop
         vertex 2.500000e+001 2.500000e+001 7.650000e+001
         vertex 2.500000e+001 1.750000e+002 1.000000e+002
         vertex 2.500000e+001 2.500000e+001 1.000000e+002
      endloop
   endfacet
   facet normal 0.000000e+000 1.000000e+000 0.000000e+000
      outer loop
         vertex 2.500000e+001 2.500000e+001 7.650000e+001
         vertex 2.500000e+001 2.500000e+001 1.000000e+002
         vertex 1.750000e+002 2.500000e+001 7.650000e+001
      endloop
   endfacet
   facet normal 0.000000e+000 1.000000e+000 0.000000e+000
      outer loop
         vertex 1.750000e+002 2.500000e+001 7.650000e+001
         vertex 2.500000e+001 2.500000e+001 1.000000e+002
         vertex 1.750000e+002 2.500000e+001 1.000000e+002
      endloop
   endfacet
   facet normal -1.000000e+000 0.000000e+000 0.000000e+000
      outer loop
         vertex 1.850000e+002 1.850000e+002 2.750000e+001
         vertex 1.850000e+002 1.500000e+001 2.750000e+001
         vertex 1.850000e+002 1.850000e+002 7.250001e+001
      endloop
   endfacet
   facet normal -1.000000e+000 0.000000e+000 0.000000e+000
      outer loop
         vertex 1.850000e+002 1.850000e+002 7.250001e+001
         vertex 1.850000e+002 1.500000e+001 2.750000e+001
         vertex 1.850000e+002 1.500000e+001 7.250001e+001
      endloop
   endfacet
   facet normal 0.000000e+000 1.000000e+000 0.000000e+000
      outer loop
         vertex 1.850000e+002 1.500000e+001 2.750000e+001
         vertex 1.500000e+001 1.500000e+001 2.750000e+001
         vertex 1.850000e+002 1.500000e+001 7.250001e+001
      endloop
   endfacet
   facet normal 0.000000e+000 1.000000e+000 0.000000e+000
      outer loop
         vertex 1.850000e+002 1.500000e+001 7.250001e+001
         vertex 1.500000e+001 1.500000e+001 2.750000e+001
         vertex 1.500000e+001 1.500000e+001 7.250001e+001
      endloop
   endfacet
   facet normal 1.000000e+000 0.000000e+000 0.000000e+000
      outer loop
         vertex 1.500000e+001 1.500000e+001 2.750000e+001
         vertex 1.500000e+001 1.850000e+002 2.750000e+001
         vertex 1.500000e+001 1.500000e+001 7.250001e+001
      endloop
   endfacet
   facet normal 1.000000e+000 0.000000e+000 0.000000e+000
      outer loop
         vertex 1.500000e+001 1.500000e+001 7.250001e+001
         vertex 1.500000e+001 1.850000e+002 2.750000e+001
         vertex 1.500000e+001 1.850000e+002 7.250001e+001
      endloop
   endfacet
   facet normal 0.000000e+000 -1.000000e+000 0.000000e+000
      outer loop
         vertex 1.500000e+001 1.850000e+002 2.750000e+001
         vertex 1.850000e+002 1.850000e+002 2.750000e+001
         vertex 1.500000e+001 1.850000e+002 7.250001e+001
      endloop
   endfacet
   facet normal 0.000000e+000 -1.000000e+000 0.000000e+000
      outer loop
         vertex 1.500000e+001 1.850000e+002 7.250001e+001
         vertex 1.850000e+002 1.850000e+002 2.750000e+001
         vertex 1.850000e+002 1.850000e+002 7.250001e+001
      endloop
   endfacet
   facet normal 0.000000e+000 0.000000e+000 1.000000e+000
      outer loop
         vertex 2.100000e+001 2.100000e+001 2.750000e+001
         vertex 1.500000e+001 1.500000e+001 2.750000e+001
         vertex 1.790000e+002 2.100000e+001 2.750000e+001
      endloop
   endfacet
   facet normal 0.000000e+000 0.000000e+000 1.000000e+000
      outer loop
         vertex 1.790000e+002 2.100000e+001 2.750000e+001
         vertex 1.500000e+001 1.500000e+001 2.750000e+001
         vertex 1.850000e+002 1.500000e+001 2.750000e+001
      endloop
   endfacet
   facet normal 0.000000e+000 0.000000e+000 1.000000e+000
      outer loop
         vertex 1.790000e+002 2.100000e+001 2.750000e+001
         vertex 1.850000e+002 1.500000e+001 2.750000e+001
         vertex 1.790000e+002 1.790000e+002 2.750000e+001
      endloop
   endfacet
   facet normal 0.000000e+000 0.000000e+000 1.000000e+000
      outer loop
         vertex 1.790000e+002 1.790000e+002 2.750000e+001
         vertex 1.850000e+002 1.500000e+001 2.750000e+001
         vertex 1.850000e+002 1.850000e+002 2.750000e+001
      endloop
   endfacet
   facet normal 0.000000e+000 0.000000e+000 1.000000e+000
      outer loop
         vertex 1.790000e+002 1.790000e+002 2.750000e+001
         vertex 1.850000e+002 1.850000e+002 2.750000e+001
         vertex 2.100000e+001 1.790000e+002 2.750000e+001
      endloop
   endfacet
   facet normal 0.000000e+000 0.000000e+000 1.000000e+000
      outer loop
         vertex 2.100000e+001 1.790000e+002 2.750000e+001
         vertex 1.850000e+002 1.850000e+002 2.750000e+001
         vertex 1.500000e+001 1.850000e+002 2.750000e+001
      endloop
   endfacet
   facet normal 0.000000e+000 0.000000e+000 1.000000e+000
      outer loop
         vertex 2.100000e+001 1.790000e+002 2.750000e+001
         vertex 1.500000e+001 1.850000e+002 2.750000e+001
         vertex 2.100000e+001 2.100000e+001 2.750000e+001
      endloop
   endfacet
   facet normal 0.000000e+000 0.000000e+000 1.000000e+000
      outer loop
         vertex 2.100000e+001 2.100000e+001 2.750000e+001
         vertex 1.500000e+001 1.850000e+002 2.750000e+001
         vertex 1.500000e+001 1.500000e+001 2.750000e+001
      endloop
   endfacet
   facet normal 0.000000e+000 0.000000e+000 -1.000000e+000
      outer loop
         vertex 1.790000e+002 2.100000e+001 7.250001e+001
         vertex 1.850000e+002 1.500000e+001 7.250001e+001
         vertex 2.100000e+001 2.100000e+001 7.250001e+001
      endloop
   endfacet
   facet normal 0.000000e+000 0.000000e+000 -1.000000e+000
      outer loop
         vertex 2.100000e+001 2.100000e+001 7.250001e+001
         vertex 1.850000e+002 1.500000e+001 7.250001e+001
         vertex 1.500000e+001 1.500000e+001 7.250001e+001
      endloop
   endfacet
   facet normal 0.000000e+000 0.000000e+000 -1.000000e+000
      outer loop
         vertex 2.100000e+001 2.100000e+001 7.250001e+001
         vertex 1.500000e+001 1.500000e+001 7.250001e+001
         vertex 2.100000e+001 1.790000e+002 7.250001e+001
      endloop
   endfacet
   facet normal 0.000000e+000 0.000000e+000 -1.000000e+000
      outer loop
         vertex 2.100000e+001 1.790000e+002 7.250001e+001
         vertex 1.500000e+001 1.500000e+001 7.250001e+001
         vertex 1.500000e+001 1.850000e+002 7.250001e+001
      endloop
   endfacet
   facet normal 0.000000e+000 0.000000e+000 -1.000000e+000
      outer loop
         vertex 2.100000e+001 1.790000e+002 7.250001e+001
         vertex 1.500000e+001 1.850000e+002 7.250001e+001
         vertex 1.790000e+002 1.790000e+002 7.250001e+001
      endloop
   endfacet
   facet normal 0.000000e+000 0.000000e+000 -1.000000e+000
      outer loop
         vertex 1.790000e+002 1.790000e+002 7.250001e+001
         vertex 1.500000e+001 1.850000e+002 7.250001e+001
         vertex 1.850000e+002 1.850000e+002 7.250001e+001
      endloop
   endfacet
   facet normal 0.000000e+000 0.000000e+000 -1.000000e+000
      outer loop
         vertex 1.790000e+002 1.790000e+002 7.250001e+001
         vertex 1.850000e+002 1.850000e+002 7.250001e+001
         vertex 1.790000e+002 2.100000e+001 7.250001e+001
      endloop
   endfacet
   facet normal 0.000000e+000 0.000000e+000 -1.000000e+000
      outer loop
         vertex 1.790000e+002 2.100000e+001 7.250001e+001
         vertex 1.850000e+002 1.850000e+002 7.250001e+001
         vertex 1.850000e+002 1.500000e+001 7.250001e+001
      endloop
   endfacet
   facet normal 0.000000e+000 9.986320e-001 5.228807e-002
      outer loop
         vertex 1.750492e+002 2.495076e+001 2.412574e+001
         vertex 1.750000e+002 2.500000e+001 2.350000e+001
         vertex 2.500000e+001 2.500000e+001 2.350000e+001
      endloop
   endfacet
   facet normal 0.000000e+000 9.876884e-001 1.564345e-001
      outer loop
         vertex 1.750492e+002 2.495076e+001 2.412574e+001
         vertex 2.500000e+001 2.500000e+001 2.350000e+001
         vertex 1.751958e+002 2.480423e+001 2.473607e+001
      endloop
   endfacet
   facet normal 0.000000e+000 8.910065e-001 4.539905e-001
      outer loop
         vertex 2.480423e+001 2.480423e+001 2.473607e+001
         vertex 2.456403e+001 2.456403e+001 2.531596e+001
         vertex 1.757639e+002 2.423607e+001 2.585114e+001
      endloop
   endfacet
   facet normal 0.000000e+000 9.876884e-001 1.564345e-001
      outer loop
         vertex 2.500000e+001 2.500000e+001 2.350000e+001
         vertex 2.495076e+001 2.495076e+001 2.412574e+001
         vertex 1.751958e+002 2.480423e+001 2.473607e+001
      endloop
   endfacet
   facet normal 0.000000e+000 9.659134e-001 2.588653e-001
      outer loop
         vertex 1.751958e+002 2.480423e+001 2.473607e+001
         vertex 2.495076e+001 2.495076e+001 2.412574e+001
         vertex 2.480423e+001 2.480423e+001 2.473607e+001
      endloop
   endfacet
   facet normal 0.000000e+000 9.335976e-001 3.583232e-001
      outer loop
         vertex 1.751958e+002 2.480423e+001 2.473607e+001
         vertex 2.480423e+001 2.480423e+001 2.473607e+001
         vertex 1.754360e+002 2.456403e+001 2.531596e+001
      endloop
   endfacet
   facet normal 0.000000e+000 8.910065e-001 4.539905e-001
      outer loop
         vertex 1.754360e+002 2.456403e+001 2.531596e+001
         vertex 2.480423e+001 2.480423e+001 2.473607e+001
         vertex 1.757639e+002 2.423607e+001 2.585114e+001
      endloop
   endfacet
   facet normal 0.000000e+000 8.386444e-001 5.446792e-001
      outer loop
         vertex 2.456403e+001 2.456403e+001 2.531596e+001
         vertex 2.423607e+001 2.423607e+001 2.585114e+001
         vertex 1.757639e+002 2.423607e+001 2.585114e+001
      endloop
   endfacet
   facet normal 0.000000e+000 7.434030e-001 6.688437e-001
      outer loop
         vertex 1.757639e+002 2.423607e+001 2.585114e+001
         vertex 2.423607e+001 2.423607e+001 2.585114e+001
         vertex 2.335114e+001 2.335114e+001 2.673607e+001
      endloop
   endfacet
   facet normal 0.000000e+000 6.688437e-001 7.434030e-001
      outer loop
         vertex 1.757639e+002 2.423607e+001 2.585114e+001
         vertex 2.335114e+001 2.335114e+001 2.673607e+001
         vertex 1.766488e+002 2.335114e+001 2.673607e+001
      endloop
   endfacet
   facet normal 0.000000e+000 5.003342e-001 8.658324e-001
      outer loop
         vertex 1.766488e+002 2.335114e+001 2.673607e+001
         vertex 2.335114e+001 2.335114e+001 2.673607e+001
         vertex 2.223607e+001 2.223607e+001 2.730423e+001
      endloop
   endfacet
   facet normal 0.000000e+000 4.063840e-001 9.137024e-001
      outer loop
         vertex 1.766488e+002 2.335114e+001 2.673607e+001
         vertex 2.223607e+001 2.223607e+001 2.730423e+001
         vertex 1.777639e+002 2.223607e+001 2.730423e+001
      endloop
   endfacet
   facet normal 0.000000e+000 2.082892e-001 9.780673e-001
      outer loop
         vertex 1.777639e+002 2.223607e+001 2.730423e+001
         vertex 2.223607e+001 2.223607e+001 2.730423e+001
         vertex 2.100000e+001 2.100000e+001 2.750000e+001
      endloop
   endfacet
   facet normal 0.000000e+000 1.041446e-001 9.945621e-001
      outer loop
         vertex 1.777639e+002 2.223607e+001 2.730423e+001
         vertex 2.100000e+001 2.100000e+001 2.750000e+001
         vertex 1.790000e+002 2.100000e+001 2.750000e+001
      endloop
   endfacet
   facet normal -9.986320e-001 0.000000e+000 5.228807e-002
      outer loop
         vertex 1.750492e+002 1.750492e+002 2.412574e+001
         vertex 1.750000e+002 1.750000e+002 2.350000e+001
         vertex 1.750000e+002 2.500000e+001 2.350000e+001
      endloop
   endfacet
   facet normal -9.876884e-001 0.000000e+000 1.564345e-001
      outer loop
         vertex 1.750492e+002 1.750492e+002 2.412574e+001
         vertex 1.750000e+002 2.500000e+001 2.350000e+001
         vertex 1.751958e+002 1.751958e+002 2.473607e+001
      endloop
   endfacet
   facet normal -8.910065e-001 0.000000e+000 4.539905e-001
      outer loop
         vertex 1.751958e+002 2.480423e+001 2.473607e+001
         vertex 1.754360e+002 2.456403e+001 2.531596e+001
         vertex 1.757639e+002 1.757639e+002 2.585114e+001
      endloop
   endfacet
   facet normal -9.876884e-001 0.000000e+000 1.564345e-001
      outer loop
         vertex 1.750000e+002 2.500000e+001 2.350000e+001
         vertex 1.750492e+002 2.495076e+001 2.412574e+001
         vertex 1.751958e+002 1.751958e+002 2.473607e+001
      endloop
   endfacet
   facet normal -9.659134e-001 0.000000e+000 2.588653e-001
      outer loop
         vertex 1.751958e+002 1.751958e+002 2.473607e+001
         vertex 1.750492e+002 2.495076e+001 2.412574e+001
         vertex 1.751958e+002 2.480423e+001 2.473607e+001
      endloop
   endfacet
   facet normal -9.335976e-001 0.000000e+000 3.583232e-001
      outer loop
         vertex 1.751958e+002 1.751958e+002 2.473607e+001
         vertex 1.751958e+002 2.480423e+001 2.473607e+001
         vertex 1.754360e+002 1.754360e+002 2.531596e+001
      endloop
   endfacet
   facet normal -8.910065e-001 0.000000e+000 4.539905e-001
      outer loop
         vertex 1.754360e+002 1.754360e+002 2.531596e+001
         vertex 1.751958e+002 2.480423e+001 2.473607e+001
         vertex 1.757639e+002 1.757639e+002 2.585114e+001
      endloop
   endfacet
   facet normal -8.386444e-001 0.000000e+000 5.446792e-001
      outer loop
         vertex 1.754360e+002 2.456403e+001 2.531596e+001
         vertex 1.757639e+002 2.423607e+001 2.585114e+001
         vertex 1.757639e+002 1.757639e+002 2.585114e+001
      endloop
   endfacet
   facet normal -7.434030e-001 0.000000e+000 6.688437e-001
      outer loop
         vertex 1.757639e+002 1.757639e+002 2.585114e+001
         vertex 1.757639e+002 2.423607e+001 2.585114e+001
         vertex 1.766488e+002 2.335114e+001 2.673607e+001
      endloop
   endfacet
   facet normal -6.688437e-001 0.000000e+000 7.434030e-001
      outer loop
         vertex 1.757639e+002 1.757639e+002 2.585114e+001
         vertex 1.766488e+002 2.335114e+001 2.673607e+001
         vertex 1.766488e+002 1.766488e+002 2.673607e+001
      endloop
   endfacet
   facet normal -5.003342e-001 0.000000e+000 8.658324e-001
      outer loop
         vertex 1.766488e+002 1.766488e+002 2.673607e+001
         vertex 1.766488e+002 2.335114e+001 2.673607e+001
         vertex 1.777639e+002 2.223607e+001 2.730423e+001
      endloop
   endfacet
   facet normal -4.063840e-001 0.000000e+000 9.137024e-001
      outer loop
         vertex 1.766488e+002 1.766488e+002 2.673607e+001
         vertex 1.777639e+002 2.223607e+001 2.730423e+001
         vertex 1.777639e+002 1.777639e+002 2.730423e+001
      endloop
   endfacet
   facet normal -2.082892e-001 0.000000e+000 9.780673e-001
      outer loop
         vertex 1.777639e+002 1.777639e+002 2.730423e+001
         vertex 1.777639e+002 2.223607e+001 2.730423e+001
         vertex 1.790000e+002 2.100000e+001 2.750000e+001
      endloop
   endfacet
   facet normal -1.041446e-001 0.000000e+000 9.945621e-001
      outer loop
         vertex 1.777639e+002 1.777639e+002 2.730423e+001
         vertex 1.790000e+002 2.100000e+001 2.750000e+001
         vertex 1.790000e+002 1.790000e+002 2.750000e+001
      endloop
   endfacet
   facet normal 1.041446e-001 0.000000e+000 9.945621e-001
      outer loop
         vertex 2.100000e+001 1.790000e+002 2.750000e+001
         vertex 2.100000e+001 2.100000e+001 2.750000e+001
         vertex 2.223607e+001 2.223607e+001 2.730423e+001
      endloop
   endfacet
   facet normal 2.082892e-001 0.000000e+000 9.780673e-001
      outer loop
         vertex 2.100000e+001 1.790000e+002 2.750000e+001
         vertex 2.223607e+001 2.223607e+001 2.730423e+001
         vertex 2.223607e+001 1.777639e+002 2.730423e+001
      endloop
   endfacet
   facet normal 4.063840e-001 0.000000e+000 9.137024e-001
      outer loop
         vertex 2.223607e+001 1.777639e+002 2.730423e+001
         vertex 2.223607e+001 2.223607e+001 2.730423e+001
         vertex 2.335114e+001 2.335114e+001 2.673607e+001
      endloop
   endfacet
   facet normal 5.003342e-001 0.000000e+000 8.658324e-001
      outer loop
         vertex 2.223607e+001 1.777639e+002 2.730423e+001
         vertex 2.335114e+001 2.335114e+001 2.673607e+001
         vertex 2.335114e+001 1.766488e+002 2.673607e+001
      endloop
   endfacet
   facet normal 6.688437e-001 0.000000e+000 7.434030e-001
      outer loop
         vertex 2.335114e+001 1.766488e+002 2.673607e+001
         vertex 2.335114e+001 2.335114e+001 2.673607e+001
         vertex 2.423607e+001 2.423607e+001 2.585114e+001
      endloop
   endfacet
   facet normal 7.434030e-001 0.000000e+000 6.688437e-001
      outer loop
         vertex 2.335114e+001 1.766488e+002 2.673607e+001
         vertex 2.423607e+001 2.423607e+001 2.585114e+001
         vertex 2.423607e+001 1.757639e+002 2.585114e+001
      endloop
   endfacet
   facet normal 9.335976e-001 0.000000e+000 3.583232e-001
      outer loop
         vertex 2.456403e+001 2.456403e+001 2.531596e+001
         vertex 2.480423e+001 2.480423e+001 2.473607e+001
         vertex 2.480423e+001 1.751958e+002 2.473607e+001
      endloop
   endfacet
   facet normal 8.910065e-001 0.000000e+000 4.539905e-001
      outer loop
         vertex 2.456403e+001 2.456403e+001 2.531596e+001
         vertex 2.480423e+001 1.751958e+002 2.473607e+001
         vertex 2.423607e+001 2.423607e+001 2.585114e+001
      endloop
   endfacet
   facet normal 8.910065e-001 0.000000e+000 4.539905e-001
      outer loop
         vertex 2.423607e+001 2.423607e+001 2.585114e+001
         vertex 2.480423e+001 1.751958e+002 2.473607e+001
         vertex 2.456403e+001 1.754360e+002 2.531596e+001
      endloop
   endfacet
   facet normal 8.386444e-001 0.000000e+000 5.446792e-001
      outer loop
         vertex 2.423607e+001 2.423607e+001 2.585114e+001
         vertex 2.456403e+001 1.754360e+002 2.531596e+001
         vertex 2.423607e+001 1.757639e+002 2.585114e+001
      endloop
   endfacet
   facet normal 9.986320e-001 0.000000e+000 5.228807e-002
      outer loop
         vertex 2.495076e+001 2.495076e+001 2.412574e+001
         vertex 2.500000e+001 2.500000e+001 2.350000e+001
         vertex 2.500000e+001 1.750000e+002 2.350000e+001
      endloop
   endfacet
   facet normal 9.876884e-001 0.000000e+000 1.564345e-001
      outer loop
         vertex 2.495076e+001 2.495076e+001 2.412574e+001
         vertex 2.500000e+001 1.750000e+002 2.350000e+001
         vertex 2.480423e+001 2.480423e+001 2.473607e+001
      endloop
   endfacet
   facet normal 9.876884e-001 0.000000e+000 1.564345e-001
      outer loop
         vertex 2.480423e+001 2.480423e+001 2.473607e+001
         vertex 2.500000e+001 1.750000e+002 2.350000e+001
         vertex 2.495076e+001 1.750492e+002 2.412574e+001
      endloop
   endfacet
   facet normal 9.659134e-001 0.000000e+000 2.588653e-001
      outer loop
         vertex 2.480423e+001 2.480423e+001 2.473607e+001
         vertex 2.495076e+001 1.750492e+002 2.412574e+001
         vertex 2.480423e+001 1.751958e+002 2.473607e+001
      endloop
   endfacet
   facet normal 0.000000e+000 -9.986320e-001 5.228807e-002
      outer loop
         vertex 2.495076e+001 1.750492e+002 2.412574e+001
         vertex 2.500000e+001 1.750000e+002 2.350000e+001
         vertex 1.750000e+002 1.750000e+002 2.350000e+001
      endloop
   endfacet
   facet normal 0.000000e+000 -9.876884e-001 1.564345e-001
      outer loop
         vertex 2.495076e+001 1.750492e+002 2.412574e+001
         vertex 1.750000e+002 1.750000e+002 2.350000e+001
         vertex 2.480423e+001 1.751958e+002 2.473607e+001
      endloop
   endfacet
   facet normal 0.000000e+000 -9.876884e-001 1.564345e-001
      outer loop
         vertex 2.480423e+001 1.751958e+002 2.473607e+001
         vertex 1.750000e+002 1.750000e+002 2.350000e+001
         vertex 1.750492e+002 1.750492e+002 2.412574e+001
      endloop
   endfacet
   facet normal 0.000000e+000 -9.659134e-001 2.588653e-001
      outer loop
         vertex 2.480423e+001 1.751958e+002 2.473607e+001
         vertex 1.750492e+002 1.750492e+002 2.412574e+001
         vertex 1.751958e+002 1.751958e+002 2.473607e+001
      endloop
   endfacet
   facet normal 0.000000e+000 -8.910065e-001 4.539905e-001
      outer loop
         vertex 1.754360e+002 1.754360e+002 2.531596e+001
         vertex 2.423607e+001 1.757639e+002 2.585114e+001
         vertex 1.751958e+002 1.751958e+002 2.473607e+001
      endloop
   endfacet
   facet normal 0.000000e+000 -8.910065e-001 4.539905e-001
      outer loop
         vertex 1.751958e+002 1.751958e+002 2.473607e+001
         vertex 2.423607e+001 1.757639e+002 2.585114e+001
         vertex 2.456403e+001 1.754360e+002 2.531596e+001
      endloop
   endfacet
   facet normal 0.000000e+000 -9.335976e-001 3.583232e-001
      outer loop
         vertex 1.751958e+002 1.751958e+002 2.473607e+001
         vertex 2.456403e+001 1.754360e+002 2.531596e+001
         vertex 2.480423e+001 1.751958e+002 2.473607e+001
      endloop
   endfacet
   facet normal 0.000000e+000 -8.386444e-001 5.446792e-001
      outer loop
         vertex 1.754360e+002 1.754360e+002 2.531596e+001
         vertex 1.757639e+002 1.757639e+002 2.585114e+001
         vertex 2.423607e+001 1.757639e+002 2.585114e+001
      endloop
   endfacet
   facet normal 0.000000e+000 -7.434030e-001 6.688437e-001
      outer loop
         vertex 2.423607e+001 1.757639e+002 2.585114e+001
         vertex 1.757639e+002 1.757639e+002 2.585114e+001
         vertex 1.766488e+002 1.766488e+002 2.673607e+001
      endloop
   endfacet
   facet normal 0.000000e+000 -6.688437e-001 7.434030e-001
      outer loop
         vertex 2.423607e+001 1.757639e+002 2.585114e+001
         vertex 1.766488e+002 1.766488e+002 2.673607e+001
         vertex 2.335114e+001 1.766488e+002 2.673607e+001
      endloop
   endfacet
   facet normal 0.000000e+000 -5.003342e-001 8.658324e-001
      outer loop
         vertex 2.335114e+001 1.766488e+002 2.673607e+001
         vertex 1.766488e+002 1.766488e+002 2.673607e+001
         vertex 1.777639e+002 1.777639e+002 2.730423e+001
      endloop
   endfacet
   facet normal 0.000000e+000 -4.063840e-001 9.137024e-001
      outer loop
         vertex 2.335114e+001 1.766488e+002 2.673607e+001
         vertex 1.777639e+002 1.777639e+002 2.730423e+001
         vertex 2.223607e+001 1.777639e+002 2.730423e+001
      endloop
   endfacet
   facet normal 0.000000e+000 -2.082892e-001 9.780673e-001
      outer loop
         vertex 2.223607e+001 1.777639e+002 2.730423e+001
         vertex 1.777639e+002 1.777639e+002 2.730423e+001
         vertex 1.790000e+002 1.790000e+002 2.750000e+001
      endloop
   endfacet
   facet normal 0.000000e+000 -1.041446e-001 9.945621e-001
      outer loop
         vertex 2.223607e+001 1.777639e+002 2.730423e+001
         vertex 1.790000e+002 1.790000e+002 2.750000e+001
         vertex 2.100000e+001 1.790000e+002 2.750000e+001
      endloop
   endfacet
   facet normal 0.000000e+000 1.041446e-001 -9.945621e-001
      outer loop
         vertex 1.790000e+002 2.100000e+001 7.250001e+001
         vertex 2.100000e+001 2.100000e+001 7.250001e+001
         vertex 2.223607e+001 2.223607e+001 7.269578e+001
      endloop
   endfacet
   facet normal 0.000000e+000 2.082892e-001 -9.780673e-001
      outer loop
         vertex 1.790000e+002 2.100000e+001 7.250001e+001
         vertex 2.223607e+001 2.223607e+001 7.269578e+001
         vertex 1.777639e+002 2.223607e+001 7.269578e+001
      endloop
   endfacet
   facet normal 0.000000e+000 4.063840e-001 -9.137024e-001
      outer loop
         vertex 1.777639e+002 2.223607e+001 7.269578e+001
         vertex 2.223607e+001 2.223607e+001 7.269578e+001
         vertex 2.335114e+001 2.335114e+001 7.326393e+001
      endloop
   endfacet
   facet normal 0.000000e+000 5.003342e-001 -8.658324e-001
      outer loop
         vertex 1.777639e+002 2.223607e+001 7.269578e+001
         vertex 2.335114e+001 2.335114e+001 7.326393e+001
         vertex 1.766488e+002 2.335114e+001 7.326393e+001
      endloop
   endfacet
   facet normal 0.000000e+000 6.688437e-001 -7.434030e-001
      outer loop
         vertex 1.766488e+002 2.335114e+001 7.326393e+001
         vertex 2.335114e+001 2.335114e+001 7.326393e+001
         vertex 2.423607e+001 2.423607e+001 7.414886e+001
      endloop
   endfacet
   facet normal 0.000000e+000 7.434030e-001 -6.688437e-001
      outer loop
         vertex 1.766488e+002 2.335114e+001 7.326393e+001
         vertex 2.423607e+001 2.423607e+001 7.414886e+001
         vertex 1.757639e+002 2.423607e+001 7.414886e+001
      endloop
   endfacet
   facet normal 0.000000e+000 9.335976e-001 -3.583232e-001
      outer loop
         vertex 2.456403e+001 2.456403e+001 7.468404e+001
         vertex 2.480423e+001 2.480423e+001 7.526393e+001
         vertex 1.751958e+002 2.480423e+001 7.526393e+001
      endloop
   endfacet
   facet normal 0.000000e+000 8.910065e-001 -4.539905e-001
      outer loop
         vertex 2.456403e+001 2.456403e+001 7.468404e+001
         vertex 1.751958e+002 2.480423e+001 7.526393e+001
         vertex 2.423607e+001 2.423607e+001 7.414886e+001
      endloop
   endfacet
   facet normal 0.000000e+000 8.910065e-001 -4.539905e-001
      outer loop
         vertex 2.423607e+001 2.423607e+001 7.414886e+001
         vertex 1.751958e+002 2.480423e+001 7.526393e+001
         vertex 1.754360e+002 2.456403e+001 7.468404e+001
      endloop
   endfacet
   facet normal 0.000000e+000 8.386444e-001 -5.446792e-001
      outer loop
         vertex 2.423607e+001 2.423607e+001 7.414886e+001
         vertex 1.754360e+002 2.456403e+001 7.468404e+001
         vertex 1.757639e+002 2.423607e+001 7.414886e+001
      endloop
   endfacet
   facet normal 0.000000e+000 9.986320e-001 -5.228807e-002
      outer loop
         vertex 2.495076e+001 2.495076e+001 7.587426e+001
         vertex 2.500000e+001 2.500000e+001 7.650000e+001
         vertex 1.750000e+002 2.500000e+001 7.650000e+001
      endloop
   endfacet
   facet normal 0.000000e+000 9.876884e-001 -1.564345e-001
      outer loop
         vertex 2.495076e+001 2.495076e+001 7.587426e+001
         vertex 1.750000e+002 2.500000e+001 7.650000e+001
         vertex 2.480423e+001 2.480423e+001 7.526393e+001
      endloop
   endfacet
   facet normal 0.000000e+000 9.876884e-001 -1.564345e-001
      outer loop
         vertex 2.480423e+001 2.480423e+001 7.526393e+001
         vertex 1.750000e+002 2.500000e+001 7.650000e+001
         vertex 1.750492e+002 2.495076e+001 7.587426e+001
      endloop
   endfacet
   facet normal 0.000000e+000 9.659134e-001 -2.588653e-001
      outer loop
         vertex 2.480423e+001 2.480423e+001 7.526393e+001
         vertex 1.750492e+002 2.495076e+001 7.587426e+001
         vertex 1.751958e+002 2.480423e+001 7.526393e+001
      endloop
   endfacet
   facet normal -1.041446e-001 0.000000e+000 -9.945621e-001
      outer loop
         vertex 1.790000e+002 1.790000e+002 7.250001e+001
         vertex 1.790000e+002 2.100000e+001 7.250001e+001
         vertex 1.777639e+002 2.223607e+001 7.269578e+001
      endloop
   endfacet
   facet normal -2.082892e-001 0.000000e+000 -9.780673e-001
      outer loop
         vertex 1.790000e+002 1.790000e+002 7.250001e+001
         vertex 1.777639e+002 2.223607e+001 7.269578e+001
         vertex 1.777639e+002 1.777639e+002 7.269578e+001
      endloop
   endfacet
   facet normal -4.063840e-001 0.000000e+000 -9.137024e-001
      outer loop
         vertex 1.777639e+002 1.777639e+002 7.269578e+001
         vertex 1.777639e+002 2.223607e+001 7.269578e+001
         vertex 1.766488e+002 2.335114e+001 7.326393e+001
      endloop
   endfacet
   facet normal -5.003342e-001 0.000000e+000 -8.658324e-001
      outer loop
         vertex 1.777639e+002 1.777639e+002 7.269578e+001
         vertex 1.766488e+002 2.335114e+001 7.326393e+001
         vertex 1.766488e+002 1.766488e+002 7.326393e+001
      endloop
   endfacet
   facet normal -6.688437e-001 0.000000e+000 -7.434030e-001
      outer loop
         vertex 1.766488e+002 1.766488e+002 7.326393e+001
         vertex 1.766488e+002 2.335114e+001 7.326393e+001
         vertex 1.757639e+002 2.423607e+001 7.414886e+001
      endloop
   endfacet
   facet normal -7.434030e-001 0.000000e+000 -6.688437e-001
      outer loop
         vertex 1.766488e+002 1.766488e+002 7.326393e+001
         vertex 1.757639e+002 2.423607e+001 7.414886e+001
         vertex 1.757639e+002 1.757639e+002 7.414886e+001
      endloop
   endfacet
   facet normal -9.335976e-001 0.000000e+000 -3.583232e-001
      outer loop
         vertex 1.754360e+002 2.456403e+001 7.468404e+001
         vertex 1.751958e+002 2.480423e+001 7.526393e+001
         vertex 1.751958e+002 1.751958e+002 7.526393e+001
      endloop
   endfacet
   facet normal -8.910065e-001 0.000000e+000 -4.539905e-001
      outer loop
         vertex 1.754360e+002 2.456403e+001 7.468404e+001
         vertex 1.751958e+002 1.751958e+002 7.526393e+001
         vertex 1.757639e+002 2.423607e+001 7.414886e+001
      endloop
   endfacet
   facet normal -8.910065e-001 0.000000e+000 -4.539905e-001
      outer loop
         vertex 1.757639e+002 2.423607e+001 7.414886e+001
         vertex 1.751958e+002 1.751958e+002 7.526393e+001
         vertex 1.754360e+002 1.754360e+002 7.468404e+001
      endloop
   endfacet
   facet normal -8.386444e-001 0.000000e+000 -5.446792e-001
      outer loop
         vertex 1.757639e+002 2.423607e+001 7.414886e+001
         vertex 1.754360e+002 1.754360e+002 7.468404e+001
         vertex 1.757639e+002 1.757639e+002 7.414886e+001
      endloop
   endfacet
   facet normal -9.986320e-001 0.000000e+000 -5.228807e-002
      outer loop
         vertex 1.750492e+002 2.495076e+001 7.587426e+001
         vertex 1.750000e+002 2.500000e+001 7.650000e+001
         vertex 1.750000e+002 1.750000e+002 7.650000e+001
      endloop
   endfacet
   facet normal -9.876884e-001 0.000000e+000 -1.564345e-001
      outer loop
         vertex 1.750492e+002 2.495076e+001 7.587426e+001
         vertex 1.750000e+002 1.750000e+002 7.650000e+001
         vertex 1.751958e+002 2.480423e+001 7.526393e+001
      endloop
   endfacet
   facet normal -9.876884e-001 0.000000e+000 -1.564345e-001
      outer loop
         vertex 1.751958e+002 2.480423e+001 7.526393e+001
         vertex 1.750000e+002 1.750000e+002 7.650000e+001
         vertex 1.750492e+002 1.750492e+002 7.587426e+001
      endloop
   endfacet
   facet normal -9.659134e-001 0.000000e+000 -2.588653e-001
      outer loop
         vertex 1.751958e+002 2.480423e+001 7.526393e+001
         vertex 1.750492e+002 1.750492e+002 7.587426e+001
         vertex 1.751958e+002 1.751958e+002 7.526393e+001
      endloop
   endfacet
   facet normal 9.986320e-001 0.000000e+000 -5.228807e-002
      outer loop
         vertex 2.495076e+001 1.750492e+002 7.587426e+001
         vertex 2.500000e+001 1.750000e+002 7.650000e+001
         vertex 2.500000e+001 2.500000e+001 7.650000e+001
      endloop
   endfacet
   facet normal 9.876884e-001 0.000000e+000 -1.564345e-001
      outer loop
         vertex 2.495076e+001 1.750492e+002 7.587426e+001
         vertex 2.500000e+001 2.500000e+001 7.650000e+001
         vertex 2.480423e+001 1.751958e+002 7.526393e+001
      endloop
   endfacet
   facet normal 8.910065e-001 0.000000e+000 -4.539905e-001
      outer loop
         vertex 2.480423e+001 2.480423e+001 7.526393e+001
         vertex 2.456403e+001 2.456403e+001 7.468404e+001
         vertex 2.423607e+001 1.757639e+002 7.414886e+001
      endloop
   endfacet
   facet normal 9.876884e-001 0.000000e+000 -1.564345e-001
      outer loop
         vertex 2.500000e+001 2.500000e+001 7.650000e+001
         vertex 2.495076e+001 2.495076e+001 7.587426e+001
         vertex 2.480423e+001 1.751958e+002 7.526393e+001
      endloop
   endfacet
   facet normal 9.659134e-001 0.000000e+000 -2.588653e-001
      outer loop
         vertex 2.480423e+001 1.751958e+002 7.526393e+001
         vertex 2.495076e+001 2.495076e+001 7.587426e+001
         vertex 2.480423e+001 2.480423e+001 7.526393e+001
      endloop
   endfacet
   facet normal 9.335976e-001 0.000000e+000 -3.583232e-001
      outer loop
         vertex 2.480423e+001 1.751958e+002 7.526393e+001
         vertex 2.480423e+001 2.480423e+001 7.526393e+001
         vertex 2.456403e+001 1.754360e+002 7.468404e+001
      endloop
   endfacet
   facet normal 8.910065e-001 0.000000e+000 -4.539905e-001
      outer loop
         vertex 2.456403e+001 1.754360e+002 7.468404e+001
         vertex 2.480423e+001 2.480423e+001 7.526393e+001
         vertex 2.423607e+001 1.757639e+002 7.414886e+001
      endloop
   endfacet
   facet normal 8.386444e-001 0.000000e+000 -5.446792e-001
      outer loop
         vertex 2.456403e+001 2.456403e+001 7.468404e+001
         vertex 2.423607e+001 2.423607e+001 7.414886e+001
         vertex 2.423607e+001 1.757639e+002 7.414886e+001
      endloop
   endfacet
   facet normal 7.434030e-001 0.000000e+000 -6.688437e-001
      outer loop
         vertex 2.423607e+001 1.757639e+002 7.414886e+001
         vertex 2.423607e+001 2.423607e+001 7.414886e+001
         vertex 2.335114e+001 2.335114e+001 7.326393e+001
      endloop
   endfacet
   facet normal 6.688437e-001 0.000000e+000 -7.434030e-001
      outer loop
         vertex 2.423607e+001 1.757639e+002 7.414886e+001
         vertex 2.335114e+001 2.335114e+001 7.326393e+001
         vertex 2.335114e+001 1.766488e+002 7.326393e+001
      endloop
   endfacet
   facet normal 5.003342e-001 0.000000e+000 -8.658324e-001
      outer loop
         vertex 2.335114e+001 1.766488e+002 7.326393e+001
         vertex 2.335114e+001 2.335114e+001 7.326393e+001
         vertex 2.223607e+001 2.223607e+001 7.269578e+001
      endloop
   endfacet
   facet normal 4.063840e-001 0.000000e+000 -9.137024e-001
      outer loop
         vertex 2.335114e+001 1.766488e+002 7.326393e+001
         vertex 2.223607e+001 2.223607e+001 7.269578e+001
         vertex 2.223607e+001 1.777639e+002 7.269578e+001
      endloop
   endfacet
   facet normal 2.082892e-001 0.000000e+000 -9.780673e-001
      outer loop
         vertex 2.223607e+001 1.777639e+002 7.269578e+001
         vertex 2.223607e+001 2.223607e+001 7.269578e+001
         vertex 2.100000e+001 2.100000e+001 7.250001e+001
      endloop
   endfacet
   facet normal 1.041446e-001 0.000000e+000 -9.945621e-001
      outer loop
         vertex 2.223607e+001 1.777639e+002 7.269578e+001
         vertex 2.100000e+001 2.100000e+001 7.250001e+001
         vertex 2.100000e+001 1.790000e+002 7.250001e+001
      endloop
   endfacet
   facet normal 0.000000e+000 -8.386444e-001 -5.446792e-001
      outer loop
         vertex 2.456403e+001 1.754360e+002 7.468404e+001
         vertex 2.423607e+001 1.757639e+002 7.414886e+001
         vertex 1.757639e+002 1.757639e+002 7.414886e+001
      endloop
   endfacet
   facet normal 0.000000e+000 -7.434030e-001 -6.688437e-001
      outer loop
         vertex 1.757639e+002 1.757639e+002 7.414886e+001
         vertex 2.423607e+001 1.757639e+002 7.414886e+001
         vertex 2.335114e+001 1.766488e+002 7.326393e+001
      endloop
   endfacet
   facet normal 0.000000e+000 -6.688437e-001 -7.434030e-001
      outer loop
         vertex 1.757639e+002 1.757639e+002 7.414886e+001
         vertex 2.335114e+001 1.766488e+002 7.326393e+001
         vertex 1.766488e+002 1.766488e+002 7.326393e+001
      endloop
   endfacet
   facet normal 0.000000e+000 -5.003342e-001 -8.658324e-001
      outer loop
         vertex 1.766488e+002 1.766488e+002 7.326393e+001
         vertex 2.335114e+001 1.766488e+002 7.326393e+001
         vertex 2.223607e+001 1.777639e+002 7.269578e+001
      endloop
   endfacet
   facet normal 0.000000e+000 -4.063840e-001 -9.137024e-001
      outer loop
         vertex 1.766488e+002 1.766488e+002 7.326393e+001
         vertex 2.223607e+001 1.777639e+002 7.269578e+001
         vertex 1.777639e+002 1.777639e+002 7.269578e+001
      endloop
   endfacet
   facet normal 0.000000e+000 -2.082892e-001 -9.780673e-001
      outer loop
         vertex 1.777639e+002 1.777639e+002 7.269578e+001
         vertex 2.223607e+001 1.777639e+002 7.269578e+001
         vertex 2.100000e+001 1.790000e+002 7.250001e+001
      endloop
   endfacet
   facet normal 0.000000e+000 -1.041446e-001 -9.945621e-001
      outer loop
         vertex 1.777639e+002 1.777639e+002 7.269578e+001
         vertex 2.100000e+001 1.790000e+002 7.250001e+001
         vertex 1.790000e+002 1.790000e+002 7.250001e+001
      endloop
   endfacet
   facet normal 0.000000e+000 -8.910065e-001 -4.539905e-001
      outer loop
         vertex 2.456403e+001 1.754360e+002 7.468404e+001
         vertex 1.757639e+002 1.757639e+002 7.414886e+001
         vertex 2.480423e+001 1.751958e+002 7.526393e+001
      endloop
   endfacet
   facet normal 0.000000e+000 -8.910065e-001 -4.539905e-001
      outer loop
         vertex 2.480423e+001 1.751958e+002 7.526393e+001
         vertex 1.757639e+002 1.757639e+002 7.414886e+001
         vertex 1.754360e+002 1.754360e+002 7.468404e+001
      endloop
   endfacet
   facet normal 0.000000e+000 -9.335976e-001 -3.583232e-001
      outer loop
         vertex 2.480423e+001 1.751958e+002 7.526393e+001
         vertex 1.754360e+002 1.754360e+002 7.468404e+001
         vertex 1.751958e+002 1.751958e+002 7.526393e+001
      endloop
   endfacet
   facet normal 0.000000e+000 -9.986320e-001 -5.228807e-002
      outer loop
         vertex 1.750492e+002 1.750492e+002 7.587426e+001
         vertex 1.750000e+002 1.750000e+002 7.650000e+001
         vertex 2.500000e+001 1.750000e+002 7.650000e+001
      endloop
   endfacet
   facet normal 0.000000e+000 -9.876884e-001 -1.564345e-001
      outer loop
         vertex 1.750492e+002 1.750492e+002 7.587426e+001
         vertex 2.500000e+001 1.750000e+002 7.650000e+001
         vertex 1.751958e+002 1.751958e+002 7.526393e+001
      endloop
   endfacet
   facet normal 0.000000e+000 -9.876884e-001 -1.564345e-001
      outer loop
         vertex 1.751958e+002 1.751958e+002 7.526393e+001
         vertex 2.500000e+001 1.750000e+002 7.650000e+001
         vertex 2.495076e+001 1.750492e+002 7.587426e+001
      endloop
   endfacet
   facet normal 0.000000e+000 -9.659134e-001 -2.588653e-001
      outer loop
         vertex 1.751958e+002 1.751958e+002 7.526393e+001
         vertex 2.495076e+001 1.750492e+002 7.587426e+001
         vertex 2.480423e+001 1.751958e+002 7.526393e+001
      endloop
   endfacet
endsolid